<svg width="38" height="38" viewBox="0 0 38 38" fill="none" xmlns="http://www.w3.org/2000/svg">
<path fill-rule="evenodd" clip-rule="evenodd" d="M19.0002 6.3335C15.721 6.3335 13.0627 8.99181 13.0627 12.271C13.0627 15.5502 15.721 18.2085 19.0002 18.2085C22.2794 18.2085 24.9377 15.5502 24.9377 12.271C24.9377 8.99181 22.2794 6.3335 19.0002 6.3335ZM15.4377 12.271C15.4377 10.3035 17.0327 8.7085 19.0002 8.7085C20.9677 8.7085 22.5627 10.3035 22.5627 12.271C22.5627 14.2385 20.9677 15.8335 19.0002 15.8335C17.0327 15.8335 15.4377 14.2385 15.4377 12.271Z" fill="#F7F5FF"/>
<path fill-rule="evenodd" clip-rule="evenodd" d="M14.2502 20.5835C10.971 20.5835 8.31266 23.2418 8.31266 26.521C8.31266 29.8002 10.971 32.4585 14.2502 32.4585H23.7502C27.0294 32.4585 29.6877 29.8002 29.6877 26.521C29.6877 23.2418 27.0294 20.5835 23.7502 20.5835H14.2502ZM10.6877 26.521C10.6877 24.5535 12.2826 22.9585 14.2502 22.9585H23.7502C25.7177 22.9585 27.3127 24.5535 27.3127 26.521C27.3127 28.4885 25.7177 30.0835 23.7502 30.0835H14.2502C12.2826 30.0835 10.6877 28.4885 10.6877 26.521Z" fill="#F7F5FF"/>
<path d="M12.2744 16.4489C12.0247 16.0477 11.5561 15.8335 11.0835 15.8335C9.11598 15.8335 7.521 14.2385 7.521 12.271C7.521 10.3035 9.11598 8.7085 11.0835 8.7085C11.5561 8.7085 12.0247 8.49431 12.2744 8.09313C12.2854 8.07538 12.2965 8.05769 12.3077 8.04004C12.7235 7.38373 12.5128 6.45446 11.7406 6.36944C11.5248 6.34569 11.3056 6.3335 11.0835 6.3335C7.80431 6.3335 5.146 8.99181 5.146 12.271C5.146 15.5502 7.80431 18.2085 11.0835 18.2085C11.3056 18.2085 11.5248 18.1963 11.7406 18.1725C12.5128 18.0875 12.7235 17.1583 12.3077 16.502C12.2965 16.4843 12.2854 16.4666 12.2744 16.4489Z" fill="#F7F5FF"/>
<path d="M7.45495 29.0019C7.27522 28.702 6.95795 28.5002 6.60834 28.5002H6.3335C4.36598 28.5002 2.771 26.9052 2.771 24.9377C2.771 22.9701 4.36598 21.3752 6.3335 21.3752H6.60834C6.95795 21.3752 7.27522 21.1733 7.45495 20.8735C7.8937 20.1415 7.41758 19.0002 6.56417 19.0002H6.3335C3.05431 19.0002 0.395996 21.6585 0.395996 24.9377C0.395996 28.2169 3.05431 30.8752 6.3335 30.8752H6.56418C7.41758 30.8752 7.8937 29.7339 7.45495 29.0019Z" fill="#F7F5FF"/>
<path d="M25.6926 16.502C25.2768 17.1583 25.4875 18.0875 26.2597 18.1725C26.4755 18.1963 26.6947 18.2085 26.9168 18.2085C30.196 18.2085 32.8543 15.5502 32.8543 12.271C32.8543 8.99181 30.196 6.3335 26.9168 6.3335C26.6947 6.3335 26.4755 6.34569 26.2597 6.36944C25.4875 6.45446 25.2768 7.38373 25.6926 8.04004C25.7038 8.05769 25.7149 8.07538 25.7259 8.09312C25.9757 8.49431 26.4443 8.7085 26.9168 8.7085C28.8843 8.7085 30.4793 10.3035 30.4793 12.271C30.4793 14.2385 28.8843 15.8335 26.9168 15.8335C26.4443 15.8335 25.9757 16.0477 25.7259 16.4489C25.7149 16.4666 25.7038 16.4843 25.6926 16.502Z" fill="#F7F5FF"/>
<path d="M30.5454 29.0019C30.1066 29.7339 30.5827 30.8752 31.4362 30.8752H31.6668C34.946 30.8752 37.6043 28.2169 37.6043 24.9377C37.6043 21.6585 34.946 19.0002 31.6668 19.0002H31.4362C30.5827 19.0002 30.1066 20.1415 30.5454 20.8735C30.7251 21.1733 31.0424 21.3752 31.392 21.3752H31.6668C33.6343 21.3752 35.2293 22.9701 35.2293 24.9377C35.2293 26.9052 33.6343 28.5002 31.6668 28.5002H31.392C31.0424 28.5002 30.7251 28.702 30.5454 29.0019Z" fill="#F7F5FF"/>
</svg>
