<svg width="38" height="38" viewBox="0 0 38 38" fill="none" xmlns="http://www.w3.org/2000/svg">
<path fill-rule="evenodd" clip-rule="evenodd" d="M15.692 6.83017C11.7569 6.759 7.90247 8.58726 5.49098 11.9525C5.13953 12.4429 4.79125 13.0462 4.18861 14.0901L4.14572 14.1644C4.1394 14.1753 4.13304 14.1863 4.12666 14.1973C4.05456 14.322 3.97971 14.4514 3.92252 14.5776C3.37697 15.7817 3.75793 17.2035 4.83243 17.9734C4.94506 18.0542 5.0746 18.1288 5.19937 18.2007C5.21041 18.2071 5.22141 18.2134 5.23236 18.2198L15.0022 23.8604L9.26262 33.8016C8.9347 34.3696 9.12931 35.0959 9.69728 35.4238C10.2653 35.7517 10.9915 35.5571 11.3194 34.9891L17.059 25.0479L26.8289 30.6885C26.8398 30.6948 26.8508 30.7012 26.8619 30.7076C26.9865 30.7797 27.1159 30.8545 27.2421 30.9117C28.4462 31.4573 29.868 31.0763 30.6379 30.0018C30.7187 29.8891 30.7934 29.7596 30.8653 29.6348C30.8716 29.6238 30.8779 29.6128 30.8843 29.6019L30.9271 29.5276C31.5298 28.4837 31.8782 27.8805 32.1272 27.3309C33.8361 23.5591 33.4917 19.3059 31.4615 15.9333L31.6327 15.6368C34.1467 11.2823 32.6548 5.7143 28.3003 3.20025C23.9458 0.686206 18.3778 2.17815 15.8638 6.53261L15.692 6.83017ZM18.2842 7.15621C19.0446 7.33601 19.7964 7.59073 20.5295 7.92292C21.0791 8.17193 21.6824 8.52024 22.7262 9.12294L25.96 10.99C27.0039 11.5926 27.6072 11.9409 28.0976 12.2923C28.7512 12.7607 29.3472 13.2839 29.8827 13.8518C31.2919 10.7377 30.1353 7.00208 27.1128 5.25706C24.0902 3.51194 20.2764 4.37835 18.2842 7.15621ZM16.2627 9.23503C12.8785 8.96227 9.49064 10.4484 7.42149 13.3359C7.14688 13.7191 6.85996 14.2132 6.20253 15.3519C6.15457 15.4349 6.12606 15.4844 6.10515 15.5221C6.09185 15.5461 6.08516 15.5593 6.08516 15.5593C6.00843 15.7305 6.06244 15.9321 6.2145 16.042C6.2145 16.042 6.22692 16.0501 6.25041 16.0642C6.28737 16.0864 6.33679 16.115 6.41986 16.1629L17.2181 22.3973L28.0164 28.6317C28.0994 28.6797 28.1489 28.7082 28.1866 28.7291C28.209 28.7415 28.2198 28.7471 28.2232 28.7488C28.3952 28.8267 28.5974 28.7719 28.7074 28.6184C28.7035 28.624 28.7077 28.6189 28.7287 28.5838C28.7509 28.5469 28.7795 28.4974 28.8274 28.4144C29.4849 27.2757 29.7693 26.7801 29.9639 26.3507C31.4324 23.1096 31.0216 19.4255 29.0849 16.6294C28.4534 15.7177 27.6595 14.9002 26.7142 14.2228C26.331 13.9482 25.8369 13.6613 24.6982 13.0039L21.613 11.2226C20.4743 10.5652 19.9788 10.2808 19.5494 10.0862C18.4846 9.60379 17.3737 9.32457 16.2627 9.23503Z" fill="#F7F5FF"/>
</svg>
