<svg width="38" height="38" viewBox="0 0 38 38" fill="none" xmlns="http://www.w3.org/2000/svg">
<path d="M20.1873 1.5835C20.1873 0.927658 19.6557 0.395996 18.9998 0.395996C18.344 0.395996 17.8123 0.927658 17.8123 1.5835V4.75016C17.8123 5.406 18.344 5.93766 18.9998 5.93766C19.6557 5.93766 20.1873 5.406 20.1873 4.75016V1.5835Z" fill="#F7F5FF"/>
<path d="M7.52408 4.26172C7.06034 3.79797 6.30845 3.79797 5.8447 4.26172C5.38096 4.72547 5.38096 5.47735 5.8447 5.9411L8.08388 8.18027C8.54762 8.64402 9.29951 8.64402 9.76325 8.18027C10.227 7.71652 10.227 6.96464 9.76325 6.50089L7.52408 4.26172Z" fill="#F7F5FF"/>
<path d="M32.155 5.9411C32.6187 5.47735 32.6187 4.72547 32.155 4.26172C31.6912 3.79797 30.9393 3.79797 30.4756 4.26172L28.2364 6.50089C27.7727 6.96464 27.7727 7.71652 28.2364 8.18027C28.7002 8.64402 29.452 8.64402 29.9158 8.18027L32.155 5.9411Z" fill="#F7F5FF"/>
<path d="M12.2707 17.4168C12.2707 13.7004 15.2834 10.6877 18.9998 10.6877C22.7163 10.6877 25.729 13.7004 25.729 17.4168C25.729 18.0727 26.2607 18.6043 26.9165 18.6043C27.5723 18.6043 28.104 18.0727 28.104 17.4168C28.104 12.3887 24.0279 8.31266 18.9998 8.31266C13.9717 8.31266 9.89567 12.3887 9.89567 17.4168C9.89567 18.0727 10.4273 18.6043 11.0832 18.6043C11.739 18.6043 12.2707 18.0727 12.2707 17.4168Z" fill="#F7F5FF"/>
<path d="M3.1665 16.2293C2.51067 16.2293 1.979 16.761 1.979 17.4168C1.979 18.0727 2.51067 18.6043 3.1665 18.6043H6.33317C6.98901 18.6043 7.52067 18.0727 7.52067 17.4168C7.52067 16.761 6.98901 16.2293 6.33317 16.2293H3.1665Z" fill="#F7F5FF"/>
<path d="M31.6665 16.2293C31.0107 16.2293 30.479 16.761 30.479 17.4168C30.479 18.0727 31.0107 18.6043 31.6665 18.6043H34.8332C35.489 18.6043 36.0207 18.0727 36.0207 17.4168C36.0207 16.761 35.489 16.2293 34.8332 16.2293H31.6665Z" fill="#F7F5FF"/>
<path d="M6.33317 20.9793C5.67733 20.9793 5.14567 21.511 5.14567 22.1668C5.14567 22.8227 5.67733 23.3543 6.33317 23.3543H31.6665C32.3223 23.3543 32.854 22.8227 32.854 22.1668C32.854 21.511 32.3223 20.9793 31.6665 20.9793H6.33317Z" fill="#F7F5FF"/>
<path d="M11.0832 27.3127C10.4273 27.3127 9.89567 27.8443 9.89567 28.5002C9.89567 29.156 10.4273 29.6877 11.0832 29.6877H26.9165C27.5723 29.6877 28.104 29.156 28.104 28.5002C28.104 27.8443 27.5723 27.3127 26.9165 27.3127H11.0832Z" fill="#F7F5FF"/>
<path d="M15.8332 33.646C15.1773 33.646 14.6457 34.1777 14.6457 34.8335C14.6457 35.4893 15.1773 36.021 15.8332 36.021H22.1665C22.8223 36.021 23.354 35.4893 23.354 34.8335C23.354 34.1777 22.8223 33.646 22.1665 33.646H15.8332Z" fill="#F7F5FF"/>
</svg>
