<svg width="38" height="38" viewBox="0 0 38 38" fill="none" xmlns="http://www.w3.org/2000/svg">
<path d="M35.5149 10.4031C26.394 1.2823 11.6063 1.2823 2.48547 10.4031L0.743807 12.1448C0.280059 12.6085 0.280059 13.3604 0.743807 13.8241C1.20755 14.2879 1.95944 14.2879 2.42319 13.8241L4.16485 12.0825C12.3582 3.88917 25.6422 3.88917 33.8355 12.0825L35.5771 13.8242C36.0409 14.2879 36.7928 14.2879 37.2565 13.8242C37.7203 13.3604 37.7203 12.6085 37.2565 12.1448L35.5149 10.4031Z" fill="#F7F5FF"/>
<path d="M29.8149 17.3698C23.8421 11.397 14.1583 11.397 8.18548 17.3698L7.07714 18.4781C6.61339 18.9419 6.61339 19.6937 7.07714 20.1575C7.54089 20.6212 8.29277 20.6212 8.75652 20.1575L9.86485 19.0492C14.9101 14.0039 23.0902 14.0039 28.1355 19.0492L29.2438 20.1575C29.7076 20.6212 30.4594 20.6212 30.9232 20.1575C31.3869 19.6937 31.3869 18.9419 30.9232 18.4781L29.8149 17.3698Z" fill="#F7F5FF"/>
<path d="M25.5399 24.1781C21.9281 20.5663 16.0722 20.5663 12.4605 24.1781L11.8271 24.8114C11.3634 25.2752 11.3634 26.0271 11.8271 26.4908C12.2909 26.9546 13.0428 26.9546 13.5065 26.4908L14.1399 25.8575C16.8241 23.1732 21.1762 23.1732 23.8605 25.8575L24.4938 26.4908C24.9576 26.9546 25.7094 26.9546 26.1732 26.4908C26.6369 26.0271 26.6369 25.2752 26.1732 24.8114L25.5399 24.1781Z" fill="#F7F5FF"/>
<path d="M20.5835 31.6667C20.5835 32.5411 19.8746 33.25 19.0002 33.25C18.1257 33.25 17.4168 32.5411 17.4168 31.6667C17.4168 30.7922 18.1257 30.0833 19.0002 30.0833C19.8746 30.0833 20.5835 30.7922 20.5835 31.6667Z" fill="#F7F5FF"/>
</svg>
